<svg id="Layer_1" data-name="Layer 1" xmlns="http://www.w3.org/2000/svg" xmlns:xlink="http://www.w3.org/1999/xlink" viewBox="0 0 95.66 24"><defs><style>.cls-1,.cls-2{fill:none;}.cls-1{clip-rule:evenodd;}.cls-3{clip-path:url(#clip-path);}.cls-4{clip-path:url(#clip-path-2);}.cls-5{fill:#fff;}.cls-6{clip-path:url(#clip-path-3);}.cls-7{clip-path:url(#clip-path-5);}.cls-8{clip-path:url(#clip-path-7);}.cls-9{clip-path:url(#clip-path-9);}.cls-10{fill:#ff7800;}.cls-11{clip-path:url(#clip-path-11);}.cls-12{clip-path:url(#clip-path-13);}</style><clipPath id="clip-path"><path class="cls-1" d="M23.69,18.92,25,13.26h1.75c2.47,0,4.53.69,4.48,3-.06,2.58-2.71,3.63-5.59,3.63H24.31C23.51,19.77,23.69,18.92,23.69,18.92ZM36.8,16.36a4.72,4.72,0,0,0-4.35-5c2.46-.4,5.7-2.21,5.7-5.53,0-3.54-3.56-5.44-8.93-5.44a44.15,44.15,0,0,0-6.93.55L18.44,18s-1.33,4.41,2.45,5.33a13.9,13.9,0,0,0,3,.42C33.89,24.29,36.8,19.78,36.8,16.36ZM27,4.33a17.52,17.52,0,0,1,2.31-.13c2,0,3.45.71,3.41,2.35-.05,2-2.07,3.12-5,3.12H26.59c-.83,0-.59-.95-.59-.95Z"/></clipPath><clipPath id="clip-path-2"><rect class="cls-2" x="-901.73" y="-110.5" width="1047.43" height="673.35"/></clipPath><clipPath id="clip-path-3"><path class="cls-1" d="M61.35,23.79c.81,0,2.35-.32,2.88-2.66.41-1.86,1.12-5,1.12-5,.54,0,1.3.14,2.18.14,8.6,0,11.59-5.53,11.59-9.28,0-4.1-2.85-6.45-9.07-6.48A28.9,28.9,0,0,0,63.21,1L58.16,23.79Zm6.91-19.3a18.21,18.21,0,0,1,2.23-.11c2,0,3.66.59,3.66,3s-1.86,4.8-5.47,4.83H68c-1.62,0-1.16-1.35-1.16-1.35Z"/></clipPath><clipPath id="clip-path-5"><path class="cls-1" d="M45.54,13.74c0-3.7,2.41-9.23,7.91-9.23,1.44,0,4,.37,5.51,1.7,0,0,.56-1.89.72-2.67s-.13-2-2.49-2.81A13.22,13.22,0,0,0,52.77,0C44.16,0,39.69,7.08,39.69,14c0,7.45,5,10,10.09,10A11.48,11.48,0,0,0,54,23.38a2.53,2.53,0,0,0,1.65-1.77l.85-3.82a8.17,8.17,0,0,1-5.25,1.84c-3.58,0-5.67-2.3-5.67-5.89"/></clipPath><clipPath id="clip-path-7"><path class="cls-1" d="M8.14,2.16C6.19,1.24,4,3.85,3.87,4A10.78,10.78,0,0,0,2.58,6.13l1.11.57a18.23,18.23,0,0,1,5.46,4.07C10.48,7.51,10.27,3.12,8.14,2.16Z"/></clipPath><clipPath id="clip-path-9"><path class="cls-1" d="M15.76,14.09c-2.07,3.32-7.74,7.1-9.34,7.66A4.63,4.63,0,0,1,1,20.38a7.6,7.6,0,0,1-1-1.45C12.72,13.18,10.56,3.29,8.15,2.16a21.39,21.39,0,0,1,4.24,2.91,23.63,23.63,0,0,1,3,3.19A5,5,0,0,1,15.76,14.09Z"/></clipPath><clipPath id="clip-path-11"><path class="cls-1" d="M88.26,10.77c1.34-3.26,1.12-7.65-1-8.61C85.3,1.24,83.09,3.85,83,4A10.49,10.49,0,0,0,81.7,6.13l1.11.57a18.09,18.09,0,0,1,5.45,4.07"/></clipPath><clipPath id="clip-path-13"><path class="cls-1" d="M85.52,21.75a4.63,4.63,0,0,1-5.41-1.37,7.6,7.6,0,0,1-1-1.45C91.82,13.18,89.66,3.29,87.25,2.16a21.39,21.39,0,0,1,4.24,2.91,23.63,23.63,0,0,1,3,3.19,5,5,0,0,1,.34,5.83C92.79,17.41,87.13,21.19,85.52,21.75Z"/></clipPath></defs><title>wireframe_latampass_formulario</title><g class="cls-3"><g class="cls-4"><rect class="cls-5" x="14.47" y="-3.38" width="27.42" height="30.9"/></g></g><g class="cls-6"><g class="cls-4"><rect class="cls-5" x="54.42" y="-3.26" width="28.45" height="30.8"/></g></g><g class="cls-7"><g class="cls-4"><rect class="cls-5" x="35.95" y="-3.74" width="27.5" height="31.48"/></g></g><g class="cls-8"><g class="cls-4"><rect class="cls-5" x="-1.16" y="-1.78" width="14.88" height="16.28"/></g></g><g class="cls-9"><g class="cls-4"><rect class="cls-10" x="-3.74" y="-1.58" width="24.04" height="27.46"/></g></g><g class="cls-11"><g class="cls-4"><rect class="cls-5" x="77.95" y="-1.78" width="14.88" height="16.28"/></g></g><g class="cls-12"><g class="cls-4"><rect class="cls-10" x="75.36" y="-1.58" width="24.04" height="27.46"/></g></g></svg>